<svg width="944" height="393" viewBox="0 0 944 393" fill="none" xmlns="http://www.w3.org/2000/svg">
<path d="M392.186 288C387.019 288 384.436 285.5 384.436 280.5V136.25H338.186C335.519 136.25 333.602 135.75 332.436 134.75C331.436 133.75 330.936 132 330.936 129.5V125.25C330.936 122.75 331.436 120.917 332.436 119.75C333.602 118.583 335.519 118 338.186 118H453.436C456.102 118 458.019 118.583 459.186 119.75C460.352 120.917 460.936 122.75 460.936 125.25V129.5C460.936 132 460.352 133.75 459.186 134.75C458.019 135.75 456.102 136.25 453.436 136.25H407.186V280.5C407.186 283 406.602 284.917 405.436 286.25C404.269 287.417 402.352 288 399.686 288H392.186ZM491.99 288C486.99 288 484.49 285.5 484.49 280.5V125.5C484.49 120.5 486.99 118 491.99 118H595.99C598.657 118 600.49 118.5 601.49 119.5C602.657 120.5 603.24 122.25 603.24 124.75V129C603.24 131.667 602.657 133.583 601.49 134.75C600.49 135.75 598.657 136.25 595.99 136.25H507.24V193.75H573.99C576.657 193.75 578.574 194.333 579.74 195.5C580.907 196.5 581.49 198.25 581.49 200.75V204.75C581.49 207.25 580.907 209.083 579.74 210.25C578.574 211.417 576.657 212 573.99 212H507.24V269.75H595.99C598.657 269.75 600.49 270.333 601.49 271.5C602.657 272.5 603.24 274.333 603.24 277V281.25C603.24 283.75 602.657 285.5 601.49 286.5C600.49 287.5 598.657 288 595.99 288H491.99ZM699.785 291.75C672.118 291.75 650.702 284 635.535 268.5C620.535 253 613.035 231.167 613.035 203C613.035 174.833 620.535 153 635.535 137.5C650.535 122 671.868 114.25 699.535 114.25C710.202 114.25 720.202 115.333 729.535 117.5C738.868 119.667 746.702 122.833 753.035 127C754.368 127.833 755.035 128.75 755.035 129.75C755.035 130.417 754.785 131.25 754.285 132.25L749.035 141C748.368 142.333 747.618 143 746.785 143C745.952 143 745.118 142.667 744.285 142C739.285 139 733.119 136.583 725.785 134.75C718.452 132.75 710.285 131.75 701.285 131.75C680.785 131.75 664.618 137.667 652.785 149.5C641.118 161.167 635.285 179 635.285 203C635.285 227.333 641.285 245.333 653.285 257C665.285 268.5 681.452 274.25 701.785 274.25C711.785 274.25 720.452 273.417 727.785 271.75C735.118 269.917 741.702 267.25 747.535 263.75C748.368 263.083 749.285 262.75 750.285 262.75C751.118 262.75 751.868 263.333 752.535 264.5L758.035 274C758.535 274.667 758.785 275.333 758.785 276C758.785 276.5 758.535 277 758.035 277.5C757.702 277.833 757.118 278.25 756.285 278.75C743.285 287.417 724.452 291.75 699.785 291.75ZM794.48 288C789.48 288 786.98 285.5 786.98 280.5V125.5C786.98 120.5 789.48 118 794.48 118H802.23C804.897 118 806.814 118.667 807.98 120C809.147 121.167 809.73 123 809.73 125.5V193H904.23V125.5C904.23 120.5 906.814 118 911.98 118H919.48C922.147 118 924.064 118.667 925.23 120C926.397 121.167 926.98 123 926.98 125.5V280.5C926.98 283 926.397 284.917 925.23 286.25C924.064 287.417 922.147 288 919.48 288H911.98C906.814 288 904.23 285.5 904.23 280.5V211.25H809.73V280.5C809.73 283 809.147 284.917 807.98 286.25C806.814 287.417 804.897 288 802.23 288H794.48Z" fill="black"/>
<path d="M24.1348 288C20.1348 288 17.2181 287.167 15.3848 285.5C13.7181 283.667 12.8848 280.917 12.8848 277.25V129C12.8848 125.333 13.7181 122.583 15.3848 120.75C17.2181 118.917 20.1348 118 24.1348 118H87.3848C129.718 118 150.885 136.5 150.885 173.5C150.885 185.333 148.385 195.417 143.385 203.75C138.385 211.917 130.968 218.167 121.135 222.5L147.385 280C147.885 281.167 148.135 282.333 148.135 283.5C148.135 286.5 146.385 288 142.885 288H115.135C112.801 288 111.051 287.75 109.885 287.25C108.718 286.583 107.718 285.25 106.885 283.25L83.8848 228.25H54.1348V277.25C54.1348 280.917 53.3014 283.667 51.6348 285.5C49.9681 287.167 47.0514 288 42.8848 288H24.1348ZM81.3848 198.5C90.8848 198.5 97.9681 196.5 102.635 192.5C107.468 188.5 109.885 182.167 109.885 173.5C109.885 164.833 107.718 158.5 103.385 154.5C99.0514 150.5 92.5514 148.5 83.8848 148.5H54.1348V198.5H81.3848ZM223.975 288C221.308 288 219.308 287.5 217.975 286.5C216.641 285.5 215.391 283.583 214.225 280.75L150.975 126.25C150.475 124.75 150.225 123.417 150.225 122.25C150.225 119.417 151.725 118 154.725 118H184.725C187.058 118 188.808 118.5 189.975 119.5C191.308 120.5 192.308 121.917 192.975 123.75L232.975 231L272.975 123.75C274.308 119.917 277.141 118 281.475 118H311.475C314.475 118 315.975 119.417 315.975 122.25C315.975 123.417 315.725 124.75 315.225 126.25L252.225 280.75C251.058 283.583 249.725 285.5 248.225 286.5C246.891 287.5 244.891 288 242.225 288H223.975Z" fill="black"/>
</svg>
