<svg width="483" height="500" viewBox="0 0 483 500" fill="none" xmlns="http://www.w3.org/2000/svg">
<rect width="482.625" height="500" rx="50" fill="black"/>
<path d="M95.0816 341V159.182H159.89C173.976 159.182 185.665 161.608 194.957 166.462C204.309 171.315 211.293 178.032 215.909 186.614C220.525 195.137 222.834 204.991 222.834 216.178C222.834 227.304 220.496 237.1 215.82 245.563C211.204 253.968 204.22 260.508 194.869 265.183C185.576 269.859 173.887 272.197 159.801 272.197H110.707V248.582H157.315C166.193 248.582 173.414 247.309 178.977 244.764C184.6 242.219 188.713 238.52 191.317 233.667C193.922 228.814 195.224 222.984 195.224 216.178C195.224 209.312 193.892 203.364 191.229 198.333C188.624 193.302 184.511 189.455 178.888 186.792C173.325 184.069 166.016 182.708 156.96 182.708H122.514V341H95.0816ZM184.837 258.969L229.758 341H198.508L154.474 258.969H184.837ZM267.711 159.182L318.315 307.264H320.357L370.96 159.182H400.612L335.183 341H303.489L238.059 159.182H267.711Z" fill="white"/>
</svg>
