<svg width="1003" height="303" viewBox="0 0 1003 303" fill="none" xmlns="http://www.w3.org/2000/svg">
<path d="M348.476 70.4801V60.1818H475.873V70.4801H417.723V242H406.626V70.4801H348.476ZM516.312 242V60.1818H617.519V70.4801H527.409V145.853H612.104V156.151H527.409V231.702H619.65V242H516.312ZM802.023 117H790.659C789.475 110.845 787.256 104.897 784.001 99.1555C780.746 93.3553 776.543 88.147 771.394 83.5305C766.304 78.8549 760.386 75.1558 753.638 72.4332C746.891 69.7107 739.434 68.3494 731.266 68.3494C719.311 68.3494 708.302 71.5454 698.241 77.9375C688.238 84.2704 680.219 93.5921 674.182 105.903C668.204 118.213 665.215 133.276 665.215 151.091C665.215 169.024 668.204 184.146 674.182 196.457C680.219 208.767 688.238 218.089 698.241 224.422C708.302 230.696 719.311 233.832 731.266 233.832C739.434 233.832 746.891 232.501 753.638 229.837C760.386 227.115 766.304 223.445 771.394 218.829C776.543 214.153 780.746 208.915 784.001 203.115C787.256 197.315 789.475 191.337 790.659 185.182H802.023C800.721 192.521 798.205 199.712 794.477 206.755C790.807 213.798 785.954 220.19 779.917 225.931C773.939 231.613 766.866 236.141 758.699 239.514C750.59 242.829 741.446 244.486 731.266 244.486C716.115 244.486 702.768 240.639 691.227 232.945C679.686 225.191 670.631 214.301 664.061 200.274C657.551 186.247 654.295 169.853 654.295 151.091C654.295 132.329 657.551 115.935 664.061 101.908C670.631 87.8807 679.686 77.0201 691.227 69.326C702.768 61.5727 716.115 57.696 731.266 57.696C741.446 57.696 750.59 59.3828 758.699 62.7564C766.866 66.0708 773.939 70.5689 779.917 76.2507C785.954 81.8733 790.807 88.2062 794.477 95.2493C798.205 102.292 800.721 109.543 802.023 117ZM844.681 242V60.1818H855.778V145.853H965.331V60.1818H976.428V242H965.331V156.151H855.778V242H844.681Z" fill="black"/>
<path d="M20.0816 242V60.1818H84.8898C98.976 60.1818 110.665 62.6084 119.957 67.4616C129.309 72.3149 136.293 79.0324 140.909 87.6143C145.525 96.1371 147.834 105.991 147.834 117.178C147.834 128.304 145.496 138.1 140.82 146.563C136.204 154.968 129.22 161.508 119.869 166.183C110.576 170.859 98.8872 173.197 84.801 173.197H35.7066V149.582H82.3153C91.1931 149.582 98.4137 148.309 103.977 145.764C109.6 143.219 113.713 139.52 116.317 134.667C118.922 129.814 120.224 123.984 120.224 117.178C120.224 110.312 118.892 104.364 116.229 99.3331C113.624 94.3023 109.511 90.4553 103.888 87.7919C98.325 85.0694 91.0155 83.7081 81.9601 83.7081H47.5141V242H20.0816ZM109.837 159.969L154.758 242H123.508L79.4743 159.969H109.837ZM192.711 60.1818L243.315 208.264H245.357L295.96 60.1818H325.612L260.183 242H228.489L163.059 60.1818H192.711Z" fill="black"/>
</svg>
