<svg width="483" height="500" viewBox="0 0 483 500" fill="none" xmlns="http://www.w3.org/2000/svg">
<rect width="482.625" height="500" rx="50" fill="black"/>
<path d="M103.135 342C99.1348 342 96.2181 341.167 94.3848 339.5C92.7181 337.667 91.8848 334.917 91.8848 331.25V183C91.8848 179.333 92.7181 176.583 94.3848 174.75C96.2181 172.917 99.1348 172 103.135 172H166.385C208.718 172 229.885 190.5 229.885 227.5C229.885 239.333 227.385 249.417 222.385 257.75C217.385 265.917 209.968 272.167 200.135 276.5L226.385 334C226.885 335.167 227.135 336.333 227.135 337.5C227.135 340.5 225.385 342 221.885 342H194.135C191.801 342 190.051 341.75 188.885 341.25C187.718 340.583 186.718 339.25 185.885 337.25L162.885 282.25H133.135V331.25C133.135 334.917 132.301 337.667 130.635 339.5C128.968 341.167 126.051 342 121.885 342H103.135ZM160.385 252.5C169.885 252.5 176.968 250.5 181.635 246.5C186.468 242.5 188.885 236.167 188.885 227.5C188.885 218.833 186.718 212.5 182.385 208.5C178.051 204.5 171.551 202.5 162.885 202.5H133.135V252.5H160.385ZM302.975 342C300.308 342 298.308 341.5 296.975 340.5C295.641 339.5 294.391 337.583 293.225 334.75L229.975 180.25C229.475 178.75 229.225 177.417 229.225 176.25C229.225 173.417 230.725 172 233.725 172H263.725C266.058 172 267.808 172.5 268.975 173.5C270.308 174.5 271.308 175.917 271.975 177.75L311.975 285L351.975 177.75C353.308 173.917 356.141 172 360.475 172H390.475C393.475 172 394.975 173.417 394.975 176.25C394.975 177.417 394.725 178.75 394.225 180.25L331.225 334.75C330.058 337.583 328.725 339.5 327.225 340.5C325.891 341.5 323.891 342 321.225 342H302.975Z" fill="white"/>
</svg>
